<?xml version="1.0" encoding="utf-8"?>
<!-- Generator: Adobe Illustrator 23.0.1, SVG Export Plug-In . SVG Version: 6.00 Build 0)  -->
<svg version="1.1" id="Calque_1" xmlns="http://www.w3.org/2000/svg" xmlns:xlink="http://www.w3.org/1999/xlink" x="0px" y="0px"
	 viewBox="0 0 255.3 361.3" style="enable-background:new 0 0 255.3 361.3;" xml:space="preserve">
<style type="text/css">
	.st0{clip-path:url(#SVGID_2_);fill-rule:evenodd;clip-rule:evenodd;fill:#DABFBB;}
	.st1{clip-path:url(#SVGID_4_);fill-rule:evenodd;clip-rule:evenodd;fill:#DABFBB;}
	.st2{fill-rule:evenodd;clip-rule:evenodd;fill:#1F28CF;}
	.st3{fill-rule:evenodd;clip-rule:evenodd;fill:#E4E4E4;}
	.st4{fill-rule:evenodd;clip-rule:evenodd;fill:#2B44FF;}
	.st5{fill-rule:evenodd;clip-rule:evenodd;fill:#DABFBB;}
	.st6{fill-rule:evenodd;clip-rule:evenodd;fill:#764400;}
	.st7{fill-rule:evenodd;clip-rule:evenodd;fill:#E87613;}
	.st8{fill-rule:evenodd;clip-rule:evenodd;fill:#DDE3E9;}
	.st9{fill-rule:evenodd;clip-rule:evenodd;fill:#FF9B21;}
	.st10{fill-rule:evenodd;clip-rule:evenodd;fill-opacity:0.1;}
</style>
<title>Bottom/Sitting/Skinny Jeans 1</title>
<desc>Created with Sketch.</desc>
<g>
	<defs>
		<rect id="SVGID_1_" x="195.1" y="209.3" width="39.7" height="149.8"/>
	</defs>
	<clipPath id="SVGID_2_">
		<use xlink:href="#SVGID_1_"  style="overflow:visible;"/>
	</clipPath>
	<path id="Skin_3_" class="st0" d="M210.2,215.1c8.2-4.9,22.1,1.4,22,8.5c0,21.2-19.3,120.9-20.4,127.2c-1,6.3-11.8,8-12.4,0
		c-1-12.7-2.9-56.4-1-76.7c0.8-8.4,1.6-16.3,2.4-23.4c-10.1,18.3-25.8,44.5-47,78.6l-11.5-5.3c9-29.8,16.5-50.8,22.2-63.1
		c9.9-21,19.2-39,23.1-45.4C193.8,205.6,204.5,209,210.2,215.1z"/>
</g>
<g id="left-leg">
	<g>
		<defs>

				<rect id="SVGID_3_" x="149.7" y="201.4" transform="matrix(0.9655 0.2604 -0.2604 0.9655 75.8789 -35.4479)" width="44" height="134.6"/>
		</defs>
		<clipPath id="SVGID_4_">
			<use xlink:href="#SVGID_3_"  style="overflow:visible;"/>
		</clipPath>
		<path id="Skin_2_" class="st1" d="M208.2,215.4c8.2-4.9,22.1,1.4,22,8.5c0,21.2-19.3,120.9-20.4,127.2c-1,6.3-11.8,8-12.4,0
			c-1-12.7-2.9-56.4-1-76.7c0.8-8.4,1.6-16.3,2.4-23.4c-10.1,18.3-25.8,44.5-47,78.6l-11.5-5.3c9-29.8,16.5-50.8,22.2-63.1
			c9.9-21,19.2-39,23.1-45.4C191.8,205.9,202.5,209.3,208.2,215.4z"/>
	</g>
	<path id="LegLower" class="st2" d="M142.4,305.7L182,212c9.5-15.2,36,3.1,32.8,11.9c-7.3,20.1-44.6,85-46.8,91L142.4,305.7z"/>

		<g transform="translate(215.500000, 133.000000) rotate(30.000000) translate(-215.500000, -133.000000) translate(185.000000, 113.000000)">
		<path id="shoe" class="st3" d="M57,216.4c-1.1,3-1.7,5.2-1.7,6.7c0,1.8,0.3,4.4,0.9,7.9c2.1,0,20.9,0,56.4,0
			c1.5-4.8,0.6-7.5-2.5-7.8c-3.2-0.4-5.8-0.7-7.9-1L76,210.4c-0.5-0.2-1.1,0-1.3,0.5l0,0L73,215c-2.9,1.4-5.3,2-7.1,2
			c-1.5,0-3.5-0.6-6.2-1.8l0,0c-1-0.5-2.2,0-2.7,1C57,216.3,57,216.3,57,216.4z"/>
	</g>
</g>
<g transform="translate(242.000000, 126.000000)">
	<path class="st3" d="M-45.8,217.9c-1.1,3-1.7,5.2-1.7,6.7c0,1.8,0.3,4.4,0.9,7.9c2.1,0,20.9,0,56.4,0c1.5-4.8,0.6-7.5-2.5-7.8
		c-3.2-0.4-5.8-0.7-7.9-1L-26.8,212c-0.5-0.2-1.1,0-1.3,0.5l0,0l-1.7,4.1c-2.9,1.4-5.3,2-7.1,2c-1.5,0-3.5-0.6-6.2-1.8l0,0
		c-1-0.5-2.2,0-2.7,1C-45.7,217.8-45.8,217.9-45.8,217.9z"/>
</g>
<path id="Leg-and-Butt" class="st4" d="M234.3,229c0,26.6-12.6,88.5-12.6,94.4h-27.1c4-55.3,5.4-83.2,4.2-83.8
	c-1.7-0.9-71.1,6.9-91.8,6.9c-30,0-42.4-18.9-43.4-53.9H123c12.1,1.3,75.2,14,98.6,18.4C231.5,212.8,234.3,221.6,234.3,229z"/>
<g>
	<g id="Head_1_" transform="translate(54.000000, 31.000000)">
		<path class="st5" d="M40.2,33c-4.6-5.4-7.7-12-7.2-19.5C34.5-7.8,64.3-3.1,70.1,7.7c5.8,10.8,5.1,38.2-2.4,40.1
			c-3,0.8-9.3-1.1-15.8-5L56,71.5H32L40.2,33z"/>
	</g>
	<path id="hair_1_" class="st6" d="M114.6,26.9c-3.3-1-8-1.3-10-1.1c1.1-2.7,1.6-5.8,1.2-8.7s-1.6-5.3-2.8-7.9
		c-0.5-1.2-1.2-2.4-2.1-3.3s-2.1-1.5-3.4-1.8s-2.6-0.3-3.9,0C93,4.2,92.5,4.5,92,4.6c-0.6,0.1-0.8-0.2-1.3-0.6
		c-1-0.9-2.5-1.3-3.7-1.4c-1.4-0.2-2.9,0-4.2,0.5c-1.3,0.5-2.6,1.2-3.5,2.3c-0.4,0.5-0.8,1-1.1,1.6c-0.1,0.2-0.1,0.4-0.4,0.5
		c-0.2,0.1-0.5,0.1-0.7,0.2c-2.3,0.8-4.2,2.5-5.3,4.8c-0.6,1.3-0.9,3.6-0.8,6.2s2.4,9.3,4.6,11.8c2,2.2,4.8,3.6,7.6,4.3
		c-1.8,2.1-3.1,4.7-4,7.4c-1,2.9-1.6,5.9-1.8,9c-0.2,2.9-0.2,6,0.5,8.9c0.6,2.7,2,4.9,4.3,6.2c1,0.6,2.2,1.1,3.3,1.6
		c1.1,0.4,2.2,0.8,3.4,1.1c2.2,0.5,4.8,0.4,6.5-1.4c0.6-0.6,1.3-1.4,1.7-2.2c0.2-0.3,0.3-0.5,0.1-0.7c-0.2-0.3-0.6-0.6-0.9-0.8
		c-1.7-1.5-2.8-3.4-3-5.7c-0.3-2.3,0.4-5.4,2.6-6.4c2.8-1.3,5.9,0.2,8.4,1.5c1.1-3.7,3.2-7.1,6.7-8.8c3.8-1.9,8.1-2.1,12-3.8
		c1-0.4,2-0.9,2.8-1.8c0.3-0.4,0.7-0.8,0.8-1.3c0.2-0.6-0.2-1.2-0.6-1.6C124.2,33.2,117.9,27.9,114.6,26.9z"/>
</g>
<g>
	<path id="Skin_1_" class="st5" d="M160.1,172l31.7,23.7c8.6,2.4,15.8,5.4,21.6,8.9c1.4,1.3,3,3.8-2.7,3.3s-11.7-0.7-12.5,1.2
		s2.6,4.3,1,6.9c-1.1,1.7-6-2.7-14.9-13.2l-31.5-13.3L160.1,172z M37.6,171.9l20.9,0.2c-13.2,41.6-20.4,63.6-21.4,66.1
		c-2.4,5.7,2.5,14.5,4.5,19.2c-6.8,3-6-8.3-14.7-4.4C19,256.6,13,263.2,4,257.5c-1.1-0.7-2.3-3.3,0.7-5.3c7.4-5,18.1-13.7,19.5-16.6
		C26.2,231.7,30.7,210.4,37.6,171.9z"/>
	<path id="Coat-Back_1_" class="st7" d="M97.7,84.6l8.7-1.4c31.9,28,44.6,81.3,83.7,109.8l-9.6,11.7C112.4,195.7,96,130.6,97.7,84.6
		z"/>
	<path id="Shirt_1_" class="st8" d="M59.1,193c34.7,0.3,60.2,0.5,76.5,0.6c3.5,0,2.9-5,2.4-7.6c-5.6-29.4-28.1-61.3-27.8-103.2
		l-22-3.6C69.7,108.4,63.1,144.5,59.1,193z"/>
	<path id="Coat-Front_1_" class="st9" d="M60.4,107.9c-3.2-0.9-5.7-3.1-7.6-6.5c-8-14.6-5-22.6,3.7-25.2s16.3,2.9,30,3
		c0.7,0,1.4,0.1,2.1,0.2l6.9,0.4c19.3,67.3,24.4,112.2,15.4,134.6l-60.2-0.5c-3.6,8.3-7.1,15.3-10.4,20.9l-16.4-0.1
		C22.7,184.8,34.9,142.5,60.4,107.9z"/>
	<path id="Shade_1_" class="st10" d="M64,179.5c1.8,15.9,4.8,27.4,9,34.6l-22.3-0.2C54.9,204.3,59.3,192.8,64,179.5z"/>
</g>
</svg>
