<?xml version="1.0" encoding="utf-8"?>
<!-- Generator: Adobe Illustrator 23.0.1, SVG Export Plug-In . SVG Version: 6.00 Build 0)  -->
<svg version="1.1" id="Calque" xmlns="http://www.w3.org/2000/svg" xmlns:xlink="http://www.w3.org/1999/xlink" x="0px" y="0px"
   viewBox="0 0 293.6 436.5" style="enable-background:new 0 0 293.6 436.5;" xml:space="preserve">
<style type="text/css">
  .st0{clip-path:url(#SVGID_2_);fill-rule:evenodd;clip-rule:evenodd;fill:#DABFBB;}
  .st1{fill-rule:evenodd;clip-rule:evenodd;fill:#1F28CF;}
  .st2{fill-rule:evenodd;clip-rule:evenodd;fill:#E4E4E4;}
  .st3{clip-path:url(#SVGID_4_);}
  .st4{clip-path:url(#SVGID_6_);fill-rule:evenodd;clip-rule:evenodd;fill:#DABFBB;}
  .st5{fill-rule:evenodd;clip-rule:evenodd;fill:#2B44FF;}
  .st6{fill-rule:evenodd;clip-rule:evenodd;fill:#DABFBB;}
  .st7{fill-rule:evenodd;clip-rule:evenodd;fill:#764400;}
  .st8{fill-rule:evenodd;clip-rule:evenodd;fill:#E87613;}
  .st9{fill-rule:evenodd;clip-rule:evenodd;fill:#DDE3E9;}
  .st10{fill-rule:evenodd;clip-rule:evenodd;fill:#FF9B21;}
  .st11{fill-rule:evenodd;clip-rule:evenodd;fill-opacity:0.1;}
  #left-leg{transform-origin: 96%;}
</style>
<g id="left-leg">

    <animateTransform  accumulate="none" additive="replace" attributeName="transform" begin="0s" calcMode="spline" dur="2s" fill="remove" from="0" keySplines="       0.39, 0.575, 0.565, 1;       0.39, 0.575, 0.565, 1;       0.39, 0.575, 0.565, 1" keyTimes="0;0.5;0.5;1" repeatCount="indefinite" restart="always" to="0" type="rotate" values="0;-5;-5;0">
    </animateTransform>
  <g>
    <defs>

        <rect id="SVGID_1_" x="125.5" y="281.9" transform="matrix(0.3246 -0.9459 0.9459 0.3246 -155.5007 393.1282)" width="144" height="47.1"/>
    </defs>
    <clipPath id="SVGID_2_">
      <use xlink:href="#SVGID_1_"  style="overflow:visible;"/>
    </clipPath>
    <path id="Skin_3_" class="st0" d="M240.3,251.1c9.1-4.6,23.5,3.1,22.9,10.7c-1.5,22.6-29.3,127.7-30.9,134.3
      c-1.5,6.7-13.2,7.7-13.2-0.9c-0.2-13.6,1-60.4,4.4-81.9c1.5-8.9,2.9-17.3,4.2-24.8c-12.1,18.8-30.7,45.6-55.8,80.5l-11.9-6.5
      c11.7-31.2,21.3-53,28.2-65.8c12.1-21.7,23.3-40.2,27.9-46.8C223.5,239.8,234.7,244.2,240.3,251.1z"/>
  </g>
  <path id="LegLower" class="st1" d="M163.6,342.8l49-97.2c11.2-15.5,38.2,5.9,34.2,15.1c-9.2,20.9-53.7,87.5-56.5,93.8
    L163.6,342.8z"/>

    <g transform="translate(215.500000, 133.000000) rotate(30.000000) translate(-215.500000, -133.000000) translate(185.000000, 113.000000)">
    <path id="shoe_1_" class="st2" d="M93.4,238.9c-1.4,3.1-2.2,5.4-2.3,7c-0.1,1.9,0,4.7,0.4,8.5c2.2,0.2,22.3,1.5,60.2,4
      c1.9-5,1.2-8-2.1-8.5c-3.4-0.7-6.1-1.2-8.4-1.6l-27.1-14.5c-0.5-0.2-1.2-0.1-1.4,0.4l0,0l-2.1,4.3c-3.2,1.3-5.8,1.8-7.7,1.6
      c-1.6-0.1-3.7-0.9-6.5-2.4l0,0c-1-0.6-2.3-0.2-3,0.9C93.4,238.8,93.4,238.8,93.4,238.9z"/>
  </g>
</g>
<g id="right-leg">
  <g>
    <defs>

        <rect id="SVGID_3_" x="158.4" y="288" transform="matrix(0.1965 -0.9805 0.9805 0.1965 -122.5371 497.5573)" width="167.7" height="71"/>
    </defs>
    <clipPath id="SVGID_4_">
      <use xlink:href="#SVGID_3_"  style="overflow:visible;"/>
    </clipPath>
    <g class="st3">
      <g>
        <defs>

            <rect id="SVGID_5_" x="146.5" y="299.6" transform="matrix(6.706334e-02 -0.9977 0.9977 6.706334e-02 -108.6775 525.5135)" width="160.2" height="42.5"/>
        </defs>
        <clipPath id="SVGID_6_">
          <use xlink:href="#SVGID_5_"  style="overflow:visible;"/>
        </clipPath>
        <path id="Skin_1_" class="st4" d="M226.6,246.8c9.1-4.6,23.5,3.1,22.9,10.7c-1.5,22.6-29.3,127.7-30.9,134.3
          c-1.5,6.7-13.2,7.7-13.2-0.9c-0.2-13.6,1-60.4,4.4-81.9c1.5-8.9,2.9-17.3,4.2-24.8c-12.1,18.8-30.7,45.6-55.8,80.5l-11.9-6.5
          c11.7-31.2,21.3-53,28.2-65.8c12.1-21.7,23.3-40.2,27.9-46.8C209.7,235.5,220.9,239.9,226.6,246.8z"/>
      </g>
    </g>
  </g>
  <path class="st2" d="M202.4,383.2c-1.4,3.1-2.2,5.4-2.3,7c-0.1,1.9,0,4.7,0.4,8.5c2.2,0.2,22.3,1.5,60.2,4c1.9-5,1.2-8-2.1-8.5
    c-3.4-0.7-6.1-1.2-8.4-1.6l-27.1-14.4c-0.5-0.2-1.2-0.1-1.4,0.4l0,0l-2.1,4.3c-3.2,1.3-5.8,1.8-7.7,1.6c-1.6-0.1-3.7-0.9-6.5-2.4
    l0,0C204.3,381.7,203,382.1,202.4,383.2C202.5,383.1,202.4,383.2,202.4,383.2z"/>
  <path id="Leg-and-Butt_1_" class="st5" d="M251.4,263.2c-1.9,28.4-19.8,93.6-20.2,99.9l-28.9-1.9c8.2-58.7,11.7-88.4,10.5-89.1
    c-1.7-1.1-76.4,2.3-98.5,0.8c-32-2.2-43.9-23.2-42.5-60.6l63.4,4.3c12.8,2.3,79.3,20.3,103.9,26.7
    C249.6,245.8,251.9,255.3,251.4,263.2z"/>
</g>
<g id="head">
  <g id="skin-head_1_" transform="translate(54.000000, 31.000000)">
    <path class="st6" d="M59.7,46.1c-4.5-6.1-7.4-13.4-6.3-21.3c3.1-22.6,34.6-15.5,40-3.5c5.4,11.9,2.7,41.1-5.4,42.6
      c-3.3,0.6-9.8-1.8-16.5-6.5l2.3,30.9l-25.6-1.7L59.7,46.1z"/>
  </g>
  <path id="hair_1_" class="st7" d="M138.1,39c-3.5-1.3-8.4-2-10.6-1.9c1.4-2.8,2.1-6.1,1.9-9.2c-0.2-3.1-1.3-5.8-2.4-8.6
    c-0.4-1.3-1.1-2.6-2-3.7s-2.1-1.8-3.5-2.2c-1.4-0.4-2.8-0.5-4.2-0.3c-0.6,0.1-1.2,0.3-1.7,0.4c-0.6,0.1-0.8-0.3-1.3-0.7
    c-1-1-2.6-1.6-3.8-1.8c-1.5-0.3-3.1-0.2-4.5,0.2c-1.4,0.4-2.9,1.1-3.9,2.2c-0.5,0.5-0.9,1-1.3,1.6c-0.1,0.2-0.1,0.4-0.5,0.5
    c-0.2,0.1-0.5,0.1-0.8,0.2c-2.5,0.7-4.7,2.4-6,4.7c-0.7,1.3-1.2,3.8-1.3,6.6c-0.1,2.8,1.9,10.1,4.1,12.9c2,2.5,4.9,4.2,7.8,5.1
    c-2.1,2.1-3.6,4.8-4.8,7.6c-1.3,3-2.1,6.2-2.6,9.5c-0.4,3.1-0.6,6.4-0.1,9.5c0.4,2.9,1.8,5.4,4.1,6.9c1,0.7,2.3,1.3,3.4,1.9
    c1.1,0.5,2.3,1,3.5,1.4c2.3,0.7,5.1,0.8,7-1c0.7-0.6,1.5-1.4,2-2.2c0.2-0.3,0.4-0.5,0.2-0.7c-0.2-0.3-0.6-0.7-0.9-0.9
    c-1.7-1.7-2.7-3.8-2.8-6.3c-0.2-2.5,0.8-5.7,3.2-6.6c3.1-1.2,6.3,0.6,8.9,2.2c1.4-3.9,3.9-7.3,7.8-8.9c4.2-1.8,8.8-1.7,13.1-3.2
    c1.1-0.4,2.2-0.8,3.1-1.7c0.3-0.4,0.8-0.8,0.9-1.3c0.3-0.6-0.1-1.3-0.5-1.8C147.9,46.4,141.6,40.3,138.1,39z"/>
</g>
<path id="hands" class="st6" d="M176.3,197.1l32.1,27.6c9,3.2,16.5,6.9,22.4,11c1.4,1.5,2.9,4.3-3.1,3.3
  c-6-0.9-12.4-1.6-13.4,0.4c-1,2,2.5,4.8,0.6,7.4c-1.3,1.7-6.2-3.3-15-15.2l-32.7-16.5L176.3,197.1z M47.6,186.2l22.3,1.7
  c-17.1,43.5-26.3,66.4-27.6,69c-3,5.9,1.6,15.7,3.4,20.8c-7.5,2.7-5.8-9.3-15.4-5.8c-8.7,3.3-15.6,9.9-24.8,3.2
  c-1.1-0.8-2.2-3.7,1.1-5.6c8.3-4.8,20.3-13.3,22-16.3C31.1,249.2,37.4,226.8,47.6,186.2z"/>
<g id="chest">
  <path id="Coat-Back_1_" class="st8" d="M116,99.3l9.4-0.9c32,32.2,41.8,90,81.5,123.2l-11.1,11.8C123.7,219,110.8,148.3,116,99.3z"
    />
  <path id="Shirt" class="st9" d="M67,212.3c37,2.8,64.2,4.9,81.6,6.1c3.7,0.3,3.5-5.1,3.1-7.9c-3.9-31.8-25.6-67.4-22.3-112.1
    l-23.2-5.4C84.4,122.7,74.7,160.8,67,212.3z"/>
  <path id="Coat-Front" class="st10" d="M74.5,121.5c-3.4-1.2-5.9-3.7-7.6-7.5c-7.5-16.2-3.7-24.5,5.8-26.6
    c9.5-2.2,17.2,4.3,31.8,5.4c0.7,0.1,1.5,0.2,2.2,0.4L114,94c15.8,73.2,18,121.5,6.8,144.8L56.5,234c-4.4,8.6-8.7,15.8-12.6,21.6
    l-17.5-1.3C28.7,200.9,44.8,156.6,74.5,121.5z"/>
  <path id="Shade" class="st11" d="M73.2,198.2c0.8,17.1,3.2,29.6,7.1,37.6L56.5,234C61.7,224,67.2,212.1,73.2,198.2z"/>
</g>
</svg>
