<svg xmlns="http://www.w3.org/2000/svg" xmlns:xlink="http://www.w3.org/1999/xlink" version="1.1" id="Calque" x="0" y="0" viewBox="0 0 272 379" xml:space="preserve">
  <style type="text/css">
    .st0{clip-path:url(#SVGID_2_);fill-rule:evenodd;clip-rule:evenodd;fill:#DABFBB;}
    .st1{fill-rule:evenodd;clip-rule:evenodd;fill:#1F28CF;}
    .st2{fill-rule:evenodd;clip-rule:evenodd;fill:#E4E4E4;}
    .st3{clip-path:url(#SVGID_4_);}
    .st4{clip-path:url(#SVGID_6_);fill-rule:evenodd;clip-rule:evenodd;fill:#DABFBB;}
    .st5{fill-rule:evenodd;clip-rule:evenodd;fill:#2B44FF;}
    .st6{fill-rule:evenodd;clip-rule:evenodd;fill:#DABFBB;}
    .st7{fill-rule:evenodd;clip-rule:evenodd;fill:#764400;}
    .st8{fill-rule:evenodd;clip-rule:evenodd;fill:#E87613;}
    .st9{fill-rule:evenodd;clip-rule:evenodd;fill:#DDE3E9;}
    .st10{fill-rule:evenodd;clip-rule:evenodd;fill:#FF9B21;}
    .st11{fill-rule:evenodd;clip-rule:evenodd;fill-opacity:0.1;}
    #left-leg{transform-origin: 96%;}
  </style>
  <g id="left-leg">
    <animateTransform
    attributeName='transform'
    type="rotate"
    from="0"
    to="0"
    values="0;-5;-5;0"
    keySplines="
      0.39, 0.575, 0.565, 1;
      0.39, 0.575, 0.565, 1;
      0.39, 0.575, 0.565, 1"
    keyTimes="0;0.5;0.5;1"
    calcMode="spline"
    begin="0s"
    dur="2s"
    repeatCount="indefinite"
    />
    <defs>
      <rect id="SVGID_1_" x="119.4" y="249.7" transform="matrix(0.2604 -0.9655 0.9655 0.2604 -124.2572 381.2475)" width="134.6" height="44"/>
    </defs>
    <clipPath id="SVGID_2_">
      <use xlink:href="#SVGID_1_"/>
    </clipPath>
    <path id="Skin_2_" class="st0" d="M223.2 218.4c8.2-4.9 22.1 1.4 22 8.5 0 21.2-19.3 120.9-20.4 127.2 -1 6.3-11.8 8-12.4 0 -1-12.7-2.9-56.4-1-76.7 0.8-8.4 1.6-16.3 2.4-23.4 -10.1 18.3-25.8 44.5-47 78.6l-11.5-5.3c9-29.8 16.5-50.8 22.2-63.1 9.9-21 19.2-39 23.1-45.4C206.8 208.9 217.5 212.3 223.2 218.4z"/>
    <path id="LegLower" class="st1" d="M157.4 308.7L197 215c9.5-15.2 36 3.1 32.8 11.9 -7.3 20.1-44.6 85-46.8 91L157.4 308.7z"/>
    <g transform="translate(215.500000, 133.000000) rotate(30.000000) translate(-215.500000, -133.000000) translate(185.000000, 113.000000)">
      <path id="shoe" class="st2" d="M71.5 211.5c-1.1 3-1.7 5.2-1.7 6.7 0 1.8 0.3 4.4 0.9 7.9 2.1 0 20.9 0 56.4 0 1.5-4.8 0.6-7.5-2.5-7.8 -3.2-0.4-5.8-0.7-7.9-1l-26.2-11.8c-0.5-0.2-1.1 0-1.3 0.5l0 0 -1.7 4.1c-2.9 1.4-5.3 2-7.1 2 -1.5 0-3.5-0.6-6.2-1.8l0 0c-1-0.5-2.2 0-2.7 1C71.5 211.4 71.5 211.4 71.5 211.5z"/>
    </g>
  </g>
  <g id="right-leg">
    <defs>
      <rect id="SVGID_3_" x="151.2" y="252.6" transform="matrix(0.1303 -0.9915 0.9915 0.1303 -83.6821 476.2216)" width="156.8" height="66.4"/>
    </defs>
    <clipPath id="SVGID_4_">
      <use xlink:href="#SVGID_3_"/>
    </clipPath>
    <g class="st3">
      <defs>
        <rect id="SVGID_5_" x="195" y="209.4" width="39.7" height="149.8"/>
      </defs>
      <clipPath id="SVGID_6_">
        <use xlink:href="#SVGID_5_"/>
      </clipPath>
      <path id="Skin_4_" class="st4" d="M210.1 215.2c8.2-4.9 22.1 1.4 22 8.5 0 21.2-19.3 120.9-20.4 127.2 -1 6.3-11.8 8-12.4 0 -1-12.7-2.9-56.4-1-76.7 0.8-8.4 1.6-16.3 2.4-23.4 -10.1 18.3-25.8 44.5-47 78.6l-11.5-5.3c9-29.8 16.5-50.8 22.2-63.1 9.9-21 19.2-39 23.1-45.4C193.7 205.7 204.4 209.1 210.1 215.2z"/>
    </g>
    <path class="st2" d="M196.1 344c-1.1 3-1.7 5.2-1.7 6.7 0 1.8 0.3 4.4 0.9 7.9 2.1 0 20.9 0 56.4 0 1.5-4.8 0.6-7.5-2.5-7.8 -3.2-0.4-5.8-0.7-7.9-1l-26.2-11.7c-0.5-0.2-1.1 0-1.3 0.5l0 0 -1.7 4.1c-2.9 1.4-5.3 2-7.1 2 -1.5 0-3.5-0.6-6.2-1.8l0 0C197.8 342.4 196.6 342.9 196.1 344 196.2 343.9 196.1 344 196.1 344z"/>
    <path id="Leg-and-Butt" class="st5" d="M234.3 229c0 26.6-12.6 88.5-12.6 94.4h-27.1c4-55.3 5.4-83.2 4.2-83.8 -1.7-0.9-71.1 6.9-91.8 6.9 -30 0-42.4-18.9-43.4-53.9H123c12.1 1.3 75.2 14 98.6 18.4C231.5 212.8 234.3 221.6 234.3 229z"/>
  </g>
  <g id="head">
    <g id="skin-head" transform="translate(54.000000, 31.000000)">
      <path class="st6" d="M40.2 33c-4.6-5.4-7.7-12-7.2-19.5C34.5-7.8 64.3-3.1 70.1 7.7c5.8 10.8 5.1 38.2-2.4 40.1 -3 0.8-9.3-1.1-15.8-5L56 71.5H32L40.2 33z"/>
    </g>
    <path id="hair" class="st7" d="M114.6 26.9c-3.3-1-8-1.3-10-1.1 1.1-2.7 1.6-5.8 1.2-8.7s-1.6-5.3-2.8-7.9c-0.5-1.2-1.2-2.4-2.1-3.3s-2.1-1.5-3.4-1.8 -2.6-0.3-3.9 0C93 4.2 92.5 4.5 92 4.6c-0.6 0.1-0.8-0.2-1.3-0.6 -1-0.9-2.5-1.3-3.7-1.4 -1.4-0.2-2.9 0-4.2 0.5 -1.3 0.5-2.6 1.2-3.5 2.3 -0.4 0.5-0.8 1-1.1 1.6 -0.1 0.2-0.1 0.4-0.4 0.5 -0.2 0.1-0.5 0.1-0.7 0.2 -2.3 0.8-4.2 2.5-5.3 4.8 -0.6 1.3-0.9 3.6-0.8 6.2s2.4 9.3 4.6 11.8c2 2.2 4.8 3.6 7.6 4.3 -1.8 2.1-3.1 4.7-4 7.4 -1 2.9-1.6 5.9-1.8 9 -0.2 2.9-0.2 6 0.5 8.9 0.6 2.7 2 4.9 4.3 6.2 1 0.6 2.2 1.1 3.3 1.6 1.1 0.4 2.2 0.8 3.4 1.1 2.2 0.5 4.8 0.4 6.5-1.4 0.6-0.6 1.3-1.4 1.7-2.2 0.2-0.3 0.3-0.5 0.1-0.7 -0.2-0.3-0.6-0.6-0.9-0.8 -1.7-1.5-2.8-3.4-3-5.7 -0.3-2.3 0.4-5.4 2.6-6.4 2.8-1.3 5.9 0.2 8.4 1.5 1.1-3.7 3.2-7.1 6.7-8.8 3.8-1.9 8.1-2.1 12-3.8 1-0.4 2-0.9 2.8-1.8 0.3-0.4 0.7-0.8 0.8-1.3 0.2-0.6-0.2-1.2-0.6-1.6C124.2 33.2 117.9 27.9 114.6 26.9z"/>
  </g>
  <path id="hands" class="st6" d="M160.1 172l31.7 23.7c8.6 2.4 15.8 5.4 21.6 8.9 1.4 1.3 3 3.8-2.7 3.3s-11.7-0.7-12.5 1.2 2.6 4.3 1 6.9c-1.1 1.7-6-2.7-14.9-13.2l-31.5-13.3L160.1 172zM37.6 171.9l20.9 0.2c-13.2 41.6-20.4 63.6-21.4 66.1 -2.4 5.7 2.5 14.5 4.5 19.2 -6.8 3-6-8.3-14.7-4.4C19 256.6 13 263.2 4 257.5c-1.1-0.7-2.3-3.3 0.7-5.3 7.4-5 18.1-13.7 19.5-16.6C26.2 231.7 30.7 210.4 37.6 171.9z"/>
  <g id="chest">
    <path id="Coat-Back" class="st8" d="M97.7 84.6l8.7-1.4c31.9 28 44.6 81.3 83.7 109.8l-9.6 11.7C112.4 195.7 96 130.6 97.7 84.6z"/>
    <path id="Shirt" class="st9" d="M59.1 193c34.7 0.3 60.2 0.5 76.5 0.6 3.5 0 2.9-5 2.4-7.6 -5.6-29.4-28.1-61.3-27.8-103.2l-22-3.6C69.7 108.4 63.1 144.5 59.1 193z"/>
    <path id="Coat-Front" class="st10" d="M60.4 107.9c-3.2-0.9-5.7-3.1-7.6-6.5 -8-14.6-5-22.6 3.7-25.2s16.3 2.9 30 3c0.7 0 1.4 0.1 2.1 0.2l6.9 0.4c19.3 67.3 24.4 112.2 15.4 134.6l-60.2-0.5c-3.6 8.3-7.1 15.3-10.4 20.9l-16.4-0.1C22.7 184.8 34.9 142.5 60.4 107.9z"/>
    <path id="Shade" class="st11" d="M64 179.5c1.8 15.9 4.8 27.4 9 34.6l-22.3-0.2C54.9 204.3 59.3 192.8 64 179.5z"/>
  </g>
</svg>
