<?xml version="1.0" encoding="utf-8"?>
<!-- Generator: Adobe Illustrator 23.0.1, SVG Export Plug-In . SVG Version: 6.00 Build 0)  -->
<svg version="1.1" id="Calque_1" xmlns="http://www.w3.org/2000/svg" xmlns:xlink="http://www.w3.org/1999/xlink" x="0px" y="0px"
	 viewBox="0 0 380 684.5" style="enable-background:new 0 0 380 684.5;" xml:space="preserve">
<style type="text/css">
	.st0{clip-path:url(#SVGID_2_);}
	.st1{fill-rule:evenodd;clip-rule:evenodd;fill:#DABFBB;}
	.st2{fill-rule:evenodd;clip-rule:evenodd;fill:#764400;}
	.st3{fill-rule:evenodd;clip-rule:evenodd;fill:#E4E4E4;}
	.st4{clip-path:url(#SVGID_4_);fill-rule:evenodd;clip-rule:evenodd;fill:#DABFBB;}
	.st5{fill-rule:evenodd;clip-rule:evenodd;fill:#B2BAC1;}
	.st6{fill-rule:evenodd;clip-rule:evenodd;fill:#8995A0;}
	.st7{fill-rule:evenodd;clip-rule:evenodd;fill:#E87613;}
	.st8{fill-rule:evenodd;clip-rule:evenodd;fill:#DDE3E9;}
	.st9{fill-rule:evenodd;clip-rule:evenodd;fill:#FF9B21;}
	.st10{fill-rule:evenodd;clip-rule:evenodd;fill-opacity:0.1;}
</style>
<g>
	<defs>
		<rect id="SVGID_1_" x="216.3" y="482.6" width="28.9" height="44.4"/>
	</defs>
	<clipPath id="SVGID_2_">
		<use xlink:href="#SVGID_1_"  style="overflow:visible;"/>
	</clipPath>
	<g class="st0">
		<polygon id="Leg_2_" class="st1" points="160.8,298.3 204.5,419.3 228,522.9 242.2,522.2 211.6,295.8 		"/>
	</g>
</g>
<g>
	<g id="Head_1_" transform="translate(54.000000, 31.000000)">
		<path class="st1" d="M121,141.2c-4.6-5.4-7.7-12-7.2-19.5c1.5-21.4,31.3-16.7,37.1-5.9s5.1,38.2-2.4,40.1c-3,0.8-9.3-1.1-15.8-5
			l4.1,28.8h-24L121,141.2z"/>
	</g>
	<path id="hair_1_" class="st2" d="M195.4,135.1c-3.3-1-8-1.3-10-1.1c1.1-2.7,1.6-5.8,1.2-8.7c-0.4-2.9-1.6-5.3-2.8-7.9
		c-0.5-1.2-1.2-2.4-2.1-3.3c-0.9-0.9-2.1-1.5-3.4-1.8c-1.3-0.3-2.6-0.3-3.9,0c-0.6,0.1-1.1,0.4-1.6,0.5c-0.6,0.1-0.8-0.2-1.3-0.6
		c-1-0.9-2.5-1.3-3.7-1.4c-1.4-0.2-2.9,0-4.2,0.5c-1.3,0.5-2.6,1.2-3.5,2.3c-0.4,0.5-0.8,1-1.1,1.6c-0.1,0.2-0.1,0.4-0.4,0.5
		c-0.2,0.1-0.5,0.1-0.7,0.2c-2.3,0.8-4.2,2.5-5.3,4.8c-0.6,1.3-0.9,3.6-0.8,6.2c0.1,2.6,2.4,9.3,4.6,11.8c2,2.2,4.8,3.6,7.6,4.3
		c-1.8,2.1-3.1,4.7-4,7.4c-1,2.9-1.6,5.9-1.8,9c-0.2,2.9-0.2,6,0.5,8.9c0.6,2.7,2,4.9,4.3,6.2c1,0.6,2.2,1.1,3.3,1.6
		c1.1,0.4,2.2,0.8,3.4,1.1c2.2,0.5,4.8,0.4,6.5-1.4c0.6-0.6,1.3-1.4,1.7-2.2c0.2-0.3,0.3-0.5,0.1-0.7c-0.2-0.3-0.6-0.6-0.9-0.8
		c-1.7-1.5-2.8-3.4-3-5.7c-0.3-2.3,0.4-5.4,2.6-6.4c2.8-1.3,5.9,0.2,8.4,1.5c1.1-3.7,3.2-7.1,6.7-8.8c3.8-1.9,8.1-2.1,12-3.8
		c1-0.4,2-0.9,2.8-1.8c0.3-0.4,0.7-0.8,0.8-1.3c0.2-0.6-0.2-1.2-0.6-1.6C205,141.3,198.7,136.1,195.4,135.1z"/>
</g>
<title>humaaans/sitting-2</title>
<desc>Created with Sketch.</desc>
<g transform="translate(178.000000, 199.000000)">
	<path class="st3" d="M45.4,320.1c-1.1,3-1.7,5.2-1.7,6.7c0,1.8,0.3,4.4,0.9,7.9c2.1,0,20.9,0,56.4,0c1.5-4.8,0.6-7.5-2.5-7.8
		s-5.8-0.7-7.9-1l-26.2-11.7c-0.5-0.2-1.1,0-1.3,0.5c0,0,0,0,0,0l-1.7,4.1c-2.9,1.4-5.3,2-7.1,2c-1.5,0-3.5-0.6-6.2-1.8l0,0
		c-1-0.5-2.2,0-2.7,1C45.4,320,45.4,320,45.4,320.1z"/>
</g>
<g>
	<defs>
		
			<rect id="SVGID_3_" x="105" y="467.4" transform="matrix(0.9996 -2.731949e-02 2.731949e-02 0.9996 -13.5579 3.5267)" width="34.6" height="61"/>
	</defs>
	<clipPath id="SVGID_4_">
		<use xlink:href="#SVGID_3_"  style="overflow:visible;"/>
	</clipPath>
	<path class="st4" d="M124.9,391.1c3.2,39.6,1.3,60.1,0.9,63.7c-0.4,3.6-6.1,27.2-20.1,71.7l12.4-3.4c22.8-41.2,30.4-62.5,33-67.8
		c2.6-5.4,9.3-27.2,20.1-65.5L124.9,391.1z"/>
</g>
<g transform="translate(84.000000, 199.000000)">
	<path id="shoe_1_" class="st3" d="M21.4,320.1c-1.1,3-1.7,5.2-1.7,6.7c0,1.8,0.3,4.4,0.9,7.9c2.1,0,20.9,0,56.4,0
		c1.5-4.8,0.6-7.5-2.5-7.8s-5.8-0.7-7.9-1l-26.2-11.7c-0.5-0.2-1.1,0-1.3,0.5c0,0,0,0,0,0l-1.7,4.1c-2.9,1.4-5.3,2-7.1,2
		c-1.5,0-3.5-0.6-6.2-1.8l0,0c-1-0.5-2.2,0-2.7,1C21.4,320,21.4,320,21.4,320.1z"/>
</g>
<g>
	<polygon id="Leg" class="st5" points="161.2,294.9 197.5,418.7 223.9,510 243.2,510 215.1,294.9 	"/>
	<path class="st6" d="M151.5,294.9c-0.8,63.8-3.7,98.7-4.6,104.5c-0.9,5.8-14.2,42.7-39.9,110.7h20c32.8-65.2,51.1-102.1,54.9-110.7
		s15.6-43.4,33.3-104.5H151.5z"/>
</g>
<g>
	<path id="Skin" class="st1" d="M240.9,279.8l31.9,23.4c8.7,2.3,15.9,5.2,21.7,8.7c1.4,1.2,3,3.8-2.7,3.3
		c-5.7-0.4-11.7-0.6-12.5,1.3c-0.8,1.9,2.7,4.3,1.1,6.9c-1.1,1.7-6.1-2.6-15-13.1l-31.6-13.1L240.9,279.8z M118.4,280.6l20.9,0.1
		c-12.9,41.7-19.9,63.8-20.9,66.3c-2.3,5.7,2.6,14.5,4.7,19.2c-6.8,3.1-6.1-8.3-14.7-4.2c-7.9,3.7-13.8,10.3-22.9,4.7
		c-1.1-0.7-2.3-3.3,0.6-5.3c7.4-5,18-13.9,19.4-16.8C107.4,340.5,111.7,319.2,118.4,280.6z"/>
	<path id="Coat-Back_1_" class="st7" d="M177.8,192.9l8.6-1.5c32.1,27.7,45.3,81,84.6,109.2l-9.5,11.7
		C193.3,303.8,176.4,238.9,177.8,192.9z"/>
	<path id="Shirt_1_" class="st8" d="M140.1,301.5c34.7,0,60.2,0,76.5,0c3.5,0,2.8-5,2.3-7.6c-5.8-29.4-28.6-61.1-28.6-102.9
		l-22.1-3.5C150,216.9,143.7,253,140.1,301.5z"/>
	<path id="Coat-Front_1_" class="st9" d="M140.7,216.4c-3.2-0.9-5.7-3.1-7.6-6.4c-8.1-14.6-5.2-22.6,3.5-25.2s16.3,2.8,30,2.8
		c0.7,0,1.4,0,2.1,0.1l6.9,0.4c19.8,67.2,25.3,112,16.4,134.5h-60.2c-3.6,8.3-7,15.3-10.2,21h-16.4
		C103.5,293.6,115.4,251.2,140.7,216.4z"/>
	<path id="Shade_1_" class="st10" d="M144.8,288c1.9,15.8,5,27.3,9.2,34.5h-22.3C135.9,312.8,140.3,301.3,144.8,288z"/>
</g>
</svg>
