<?xml version="1.0" encoding="utf-8"?>
<!-- Generator: Adobe Illustrator 23.0.1, SVG Export Plug-In . SVG Version: 6.00 Build 0)  -->
<svg version="1.1" id="Calque_1" xmlns="http://www.w3.org/2000/svg" xmlns:xlink="http://www.w3.org/1999/xlink" x="0px" y="0px"
	 viewBox="0 0 50 62.5" style="enable-background:new 0 0 50 62.5;" xml:space="preserve">
<style type="text/css">
	.st0{fill:none;}
	.st1{fill:#FFFFFF;}
</style>
<title>icone-gesturesespanse</title>
<g>
	<path class="st0" d="M28,14V4.6H7.9V14H28z M11.1,10.9c-0.9,0-1.6-0.7-1.6-1.6s0.7-1.6,1.6-1.6s1.6,0.7,1.6,1.6S12,10.9,11.1,10.9
		L11.1,10.9z"/>
	<path class="st0" d="M42.4,33.4c-0.4-0.1-0.7-0.2-1.1-0.2c-0.9,0.1-1.8-0.2-2.5-0.7c-0.7-0.7-1.3-1.5-1.9-2.3c-1.4-2-3.1-3.8-5-5.4
		c-0.1,0-6.1-4.6-6.1-6.1v-3.1H11.5c0.1,1.7-0.1,5.1-2.4,7.1c-2,1.7-1.6,9.3-1.4,14.3c0.1,1.2,0.1,2.4,0.1,3.4
		c0.1,0.9,1,1.5,1.9,1.4c0.7-0.1,1.3-0.7,1.4-1.4v-5c0-0.5,0.4-0.8,0.8-0.8l0,0l0,0c0.5,0,0.8,0.4,0.8,0.8l0,0l0.1,6
		c0.2,0.9,1,1.5,1.8,1.4c1,0,1.8-0.6,1.8-1.4v-5c0-0.5,0.4-0.8,0.9-0.8c0.5,0,0.8,0.4,0.8,0.9l0,6c0.1,0.9,0.9,1.6,1.8,1.6
		c0.8,0,1.6-0.5,1.8-1.3l0-5.4l0.1-0.7c0.1-0.4,0.4-0.8,0.9-0.8c0.4,0,0.8,0.4,0.8,0.8v5.7c0,0.1,0,0.3,0,0.4l0.1,13
		c0,1,0.8,1.9,1.8,1.9c1.1,0,1.9-0.9,1.8-2V37.6c0-2.5,0.4-4.1,1.1-4.8c0.7-0.7,2.3-1.6,4.7-0.2c0.8,0.5,1.5,0.9,2.2,1.4
		c1,0.9,2.3,1.5,3.6,1.8c1.6,0,3.6-0.3,3.7-1.9C42.5,33.5,42.4,33.5,42.4,33.4z"/>
	<circle class="st1" cx="11.1" cy="9.3" r="1.6"/>
	<path class="st1" d="M43.1,31.9c-0.6-0.2-1.2-0.4-1.8-0.3c-0.5,0-1-0.1-1.5-0.3c-0.6-0.6-1.2-1.3-1.7-2c-1.5-2.1-3.3-4.1-5.3-5.8
		c-2-1.4-3.8-3.1-5.5-4.9v-2.9h1.5c0.5,0,0.8-0.4,0.8-0.8v0V3.8c0-0.5-0.4-0.8-0.8-0.8l0,0H7C6.6,3,6.2,3.3,6.2,3.8c0,0,0,0,0,0
		v11.1c0,0.5,0.4,0.8,0.8,0.8h0h2.8c0.1,1.3,0,4.3-1.8,5.9C5.4,23.8,5.7,31.2,6,37.2c0.1,1.2,0.1,2.3,0.1,3.3c0.1,1.7,1.6,3.1,3.3,3
		c0.8,0,1.5-0.2,2.1-0.7c0.7,1.1,1.9,1.7,3.1,1.7c0.8,0,1.5-0.2,2.2-0.6c0.6,1.2,1.9,2,3.2,2c0.6,0,1.3-0.2,1.8-0.5l0,10.7
		c0,1.9,1.6,3.5,3.5,3.5c1.9,0,3.5-1.6,3.5-3.5c0,0,0-0.1,0-0.1V37.6c0-2.4,0.4-3.4,0.6-3.6s1-1,2.7,0c0.8,0.4,1.4,0.9,2.1,1.3
		c1.3,1.1,2.8,1.8,4.5,2c4.5,0,5.3-2.2,5.4-3.5C44.3,33.1,43.9,32.3,43.1,31.9z M7.9,4.6H28V14H7.9V4.6z M38.8,35.8
		c-1.3-0.3-2.6-0.9-3.6-1.8c-0.7-0.4-1.4-0.9-2.2-1.4c-2.4-1.4-4-0.5-4.7,0.2c-0.7,0.7-1.1,2.3-1.1,4.8v18.3c0,1.1-0.8,1.9-1.8,2
		c-1,0-1.9-0.9-1.8-1.9l-0.1-13c0-0.1,0-0.3,0-0.4v-5.7c0-0.4-0.3-0.8-0.8-0.8c-0.4,0-0.8,0.3-0.9,0.8l-0.1,0.7l0,5.4
		c-0.2,0.8-1,1.4-1.8,1.3c-0.9,0.1-1.7-0.6-1.8-1.6l0-6c0-0.5-0.3-0.9-0.8-0.9c-0.5,0-0.9,0.3-0.9,0.8v5c0,0.8-0.8,1.4-1.8,1.4
		c-0.9,0.1-1.7-0.5-1.8-1.3l-0.1-6.1c0-0.5-0.4-0.8-0.8-0.8l0,0l0,0c-0.5,0-0.8,0.4-0.8,0.8l0,0v5c-0.1,0.9-0.9,1.5-1.8,1.4
		c-0.7-0.1-1.3-0.7-1.4-1.4c0-1-0.1-2.1-0.1-3.4c-0.2-5-0.6-12.6,1.4-14.3c2.4-2,2.5-5.5,2.4-7.1h14.2v3.1c0,1.5,6.1,6,6.1,6.1
		c1.9,1.6,3.6,3.4,5,5.4c0.6,0.8,1.2,1.6,1.9,2.3c0.7,0.5,1.6,0.8,2.5,0.7c0.4,0,0.8,0,1.1,0.2c0.1,0,0.1,0.1,0.1,0.5
		C42.4,35.4,40.4,35.8,38.8,35.8z"/>
</g>
</svg>
