<?xml version="1.0" encoding="utf-8"?>
<!-- Generator: Adobe Illustrator 23.0.1, SVG Export Plug-In . SVG Version: 6.00 Build 0)  -->
<svg version="1.1" id="Calque_1" xmlns="http://www.w3.org/2000/svg" xmlns:xlink="http://www.w3.org/1999/xlink" x="0px" y="0px"
   viewBox="0 0 171.2 319.3" style="enable-background:new 0 0 171.2 319.3;" xml:space="preserve">
<style type="text/css">
  .st0{clip-path:url(#SVGID_2_);}
  .st1{fill-rule:evenodd;clip-rule:evenodd;fill:#1F28CF;}
  .st2{fill-rule:evenodd;clip-rule:evenodd;fill:#2B44FF;}
  .st3{fill-rule:evenodd;clip-rule:evenodd;fill:#191847;}
  .st4{fill-rule:evenodd;clip-rule:evenodd;fill:#DABFBB;}
  .st5{fill-rule:evenodd;clip-rule:evenodd;fill:#764400;}
  .st6{fill-rule:evenodd;clip-rule:evenodd;fill:#E87613;}
  .st7{fill-rule:evenodd;clip-rule:evenodd;fill:#DDE3E9;}
  .st8{fill-rule:evenodd;clip-rule:evenodd;fill:#FF9B21;}
  .st9{fill-rule:evenodd;clip-rule:evenodd;fill-opacity:0.1;}
  #head{transform-origin: 100%;}
</style>
<g>
  <defs>
    <rect id="SVGID_1_" x="-9.2" width="180.4" height="301.2"/>
  </defs>
  <clipPath id="SVGID_2_">
    <use xlink:href="#SVGID_1_"  style="overflow:visible;"/>
  </clipPath>
  <g class="st0">
    <g>
      <polygon id="Leg" class="st1" points="142.6,182.8 257.7,255.3 341.1,309.8 356.5,298.1 186.2,149.8       "/>
      <path class="st2" d="M133.2,189.9c25.9,35.1,61.6,81.7,62.4,84.7c0.4,2-7.3,33.7-23,95.2l18.1,7.5
        c24.1-65.9,35.8-101.8,35.1-107.7c-1-8.7-25.1-78.3-40.8-118.8L133.2,189.9z"/>

        <g transform="translate(56.500000, 189.000000) rotate(50.000000) translate(-56.500000, -189.000000) translate(26.000000, 169.000000)">
        <path id="Shoe" class="st3" d="M254,65.4L242.1,48l16.7-12.7c12.1-0.4,25.9-3.7,41.3-9.9l2.4,3.1l-30.3,22.9l-11.6,6.3l1.2,1.6
          L254,65.4z"/>
      </g>
      <g transform="translate(208.000000, 199.000000)">
        <path class="st3" d="M142.6,126.2l-11.9-17.3l16.7-12.7c12.1-0.4,25.9-3.7,41.3-9.9l2.4,3.1l-30.3,22.9l-11.6,6.3l1.2,1.6
          L142.6,126.2z"/>
      </g>
    </g>
    <g>
      <g id="head">
            <animateTransform
    attributeName='transform'
    type="rotate"
    from="0"
    to="0"
    values="0;-2;-2;0"
    keySplines="
      0.39, 0.575, 0.565, 1;
      0.39, 0.575, 0.565, 1;
      0.39, 0.575, 0.565, 1"
    keyTimes="0;0.5;0.5;1"
    calcMode="spline"
    begin="0s"
    dur="2s"
    repeatCount="indefinite"
    />
        <g id="Head_1_" transform="translate(54.000000, 31.000000)">
          <path class="st4" d="M44.7,49c-6.9-1.9-13.1-5.6-16.9-12.1C17,18.2,44.3,5.4,55.2,11.1C66,16.8,80.9,39.8,75.7,45.7
            c-2,2.4-8.4,4.3-15.9,4.8l19.6,21.5L59.6,85.4L44.7,49z"/>
        </g>
        <path id="hair_1_" class="st5" d="M94.8,37.7c-3.3,1-7.4,3.4-8.9,4.8c-0.6-2.8-2-5.7-3.9-7.9c-2-2.2-4.3-3.5-6.7-5
          c-1.1-0.7-2.4-1.3-3.6-1.6c-1.2-0.3-2.6-0.1-3.8,0.4c-1.3,0.4-2.3,1.2-3.3,2.2c-0.5,0.5-0.7,1-1.1,1.3c-0.5,0.5-0.8,0.3-1.4,0.3
          c-1.3-0.1-2.8,0.3-3.8,0.9c-1.2,0.6-2.4,1.6-3.2,2.8s-1.4,2.5-1.6,3.9c0,0.6,0,1.3,0,1.9c0,0.2,0.1,0.4,0,0.6
          c-0.1,0.2-0.4,0.3-0.4,0.6c-1.5,2-2.1,4.5-1.7,6.9c0.3,1.4,1.3,3.5,2.9,5.6c1.6,2.1,7.2,6.3,10.4,7.2c2.9,0.7,6,0.3,8.7-0.7
          c-0.3,2.8,0,5.6,0.9,8.4c0.8,2.9,2,5.8,3.6,8.4c1.5,2.5,3.2,5.1,5.5,7.1c2,1.9,4.4,2.9,7.1,2.7c1.2,0,2.5-0.3,3.7-0.5
          c1.2-0.3,2.3-0.6,3.4-1c2.1-0.8,4.2-2.4,4.6-4.8c0.2-0.8,0.3-1.8,0.2-2.7c0-0.4-0.1-0.6-0.3-0.7c-0.3-0.2-0.8-0.2-1.2-0.2
          c-2.2-0.2-4.3-1.2-5.7-3.1c-1.5-1.7-2.7-4.7-1.5-6.8c1.6-2.6,5-3.2,7.7-3.5c-1.1-3.7-1.3-7.7,0.6-11c2.1-3.7,5.5-6.3,7.8-9.9
          c0.6-0.9,1.2-1.8,1.3-3.1c0-0.5,0.2-1-0.1-1.5c-0.2-0.6-0.8-0.9-1.4-0.9C106.1,37.5,98.1,36.7,94.8,37.7z"/>
      </g>
      <g>
        <path id="Skin" class="st4" d="M213.7,132l39.5,1.5c8.5-3,16.1-4.6,22.9-5c1.8,0.2,4.6,1.5-0.4,4.3c-4.9,2.9-10,6.1-9.6,8.1
          c0.4,2.1,4.7,2.1,4.8,5.1c0,2-6.5,1.3-19.8-2.4l-33.5,6.9L213.7,132z M112.7,201.3l17.4-11.7c12.8,41.7,19.4,64,19.9,66.6
          c1.3,6,10.3,10.6,14.7,13.2c-3.9,6.4-9.7-3.4-14.5,4.8c-4.5,7.5-5.7,16.3-16.3,16.8c-1.3,0.1-3.8-1.5-2.5-4.7
          c3.3-8.3,7.1-21.7,6.6-24.8C137.3,257.1,128.9,237.1,112.7,201.3z"/>
        <path id="Coat-Back_1_" class="st6" d="M112.7,95.5l6.2-6.1c42.1,4.9,82.9,41.5,131.3,42.9l-1.3,15
          C187.8,178.5,137.3,134.3,112.7,95.5z"/>
        <path id="Shirt_1_" class="st7" d="M142.4,206.5c28.7-19.5,49.8-33.9,63.3-43c2.9-1.9-0.5-5.7-2.4-7.6
          c-21.3-21.1-58-34.5-81.5-69.1l-20.2,9.5C103.2,131,118.2,164.4,142.4,206.5z"/>
        <path id="Coat-Front_1_" class="st8" d="M95.2,135.7c-3.2,1.1-6.5,0.6-9.9-1.1c-14.9-7.5-17-15.7-11.3-22.9
          c5.7-7,15-6.9,26.4-14.5c0.6-0.4,1.1-0.7,1.8-1.1l5.9-3.5c54.1,44.5,83.9,78.5,89.1,102l-49.8,33.9c1.6,8.9,2.8,16.6,3.4,23.1
          l-13.5,9.2C107.7,220.5,93.8,178.8,95.2,135.7z"/>
        <path id="Shade_1_" class="st9" d="M138.8,192.7c10.4,12,19.5,19.8,27,23.4l-18.5,12.5C145.3,218.2,142.5,206.2,138.8,192.7z"/>
      </g>
    </g>
  </g>
</g>
</svg>
